<svg xmlns="http://www.w3.org/2000/svg" viewBox="0 0 32 32" id="exam-paper"><rect width="12" height="6" x="10" y="1" rx="1" ry="1"></rect><rect width="2" height="2" x="10" y="13"></rect><rect width="2" height="2" x="10" y="23"></rect><path d="M24,3V6a3,3,0,0,1-3,3H11A3,3,0,0,1,8,6V3A3,3,0,0,0,5,6V28a3,3,0,0,0,3,3H24a3,3,0,0,0,3-3V6A3,3,0,0,0,24,3ZM14,26a1,1,0,0,1-1,1H9a1,1,0,0,1-1-1V22a1,1,0,0,1,1-1h4a1,1,0,0,1,1,1Zm0-10a1,1,0,0,1-1,1H9a1,1,0,0,1-1-1V12a1,1,0,0,1,1-1h4a1,1,0,0,1,1,1Zm9,11H17a1,1,0,0,1,0-2h6a1,1,0,0,1,0,2Zm0-3H19a1,1,0,0,1,0-2h4a1,1,0,0,1,0,2Zm0-7H17a1,1,0,0,1,0-2h6a1,1,0,0,1,0,2Zm0-3H19a1,1,0,0,1,0-2h4a1,1,0,0,1,0,2Z"></path></svg>